<svg width="24" height="25" viewBox="0 0 24 25" fill="none" xmlns="http://www.w3.org/2000/svg">
    <path d="M16.9688 5.25781C16.9062 5.03906 16.7891 4.85938 16.6172 4.71875C16.4453 4.57812 16.2422 4.50781 16.0078 4.50781C15.7891 4.50781 15.5938 4.57031 15.4219 4.69531C15.25 4.82031 15.125 4.98437 15.0469 5.1875L11.8594 14.7266L8.90625 8.09375C8.82813 7.92187 8.70703 7.78125 8.54297 7.67188C8.37891 7.5625 8.19531 7.50781 7.99219 7.50781C7.78906 7.50781 7.60547 7.56641 7.44141 7.68359C7.27734 7.80078 7.15625 7.94531 7.07812 8.11719L5.32031 12.5H1.99219V14.4922H5.32031C5.72656 14.4922 6.10156 14.3789 6.44531 14.1523C6.78906 13.9258 7.03125 13.625 7.17188 13.25L8.03906 11.0703L11.0859 17.9141C11.1641 18.0859 11.2852 18.2266 11.4492 18.3359C11.6133 18.4453 11.7969 18.5 12 18.5H12.0469C12.25 18.4844 12.4336 18.4141 12.5977 18.2891C12.7617 18.1641 12.875 18.0078 12.9375 17.8203L15.8672 9.07812L16.8516 12.9922C16.9609 13.4297 17.1914 13.7891 17.543 14.0703C17.8945 14.3516 18.3047 14.4922 18.7734 14.4922H22.0078V12.5H18.7734L16.9688 5.25781Z" fill="white"/>
    </svg>
    